<svg id="visual" viewBox="0 0 900 600" width="900" height="600" xmlns="http://www.w3.org/2000/svg" xmlns:xlink="http://www.w3.org/1999/xlink" version="1.1"><rect x="0" y="0" width="900" height="600" fill="#FFFFFF"></rect><path d="M677 600L687.8 595C698.7 590 720.3 580 707.3 570C694.3 560 646.7 550 663 540C679.3 530 759.7 520 791.7 510C823.7 500 807.3 490 787.3 480C767.3 470 743.7 460 741.2 450C738.7 440 757.3 430 767.8 420C778.3 410 780.7 400 783.7 390C786.7 380 790.3 370 764 360C737.7 350 681.3 340 679.2 330C677 320 729 310 727 300C725 290 669 280 655.5 270C642 260 671 250 668.2 240C665.3 230 630.7 220 617 210C603.3 200 610.7 190 637 180C663.3 170 708.7 160 716.2 150C723.7 140 693.3 130 688 120C682.7 110 702.3 100 714.8 90C727.3 80 732.7 70 749.8 60C767 50 796 40 774.7 30C753.3 20 681.7 10 645.8 5L610 0L900 0L900 5C900 10 900 20 900 30C900 40 900 50 900 60C900 70 900 80 900 90C900 100 900 110 900 120C900 130 900 140 900 150C900 160 900 170 900 180C900 190 900 200 900 210C900 220 900 230 900 240C900 250 900 260 900 270C900 280 900 290 900 300C900 310 900 320 900 330C900 340 900 350 900 360C900 370 900 380 900 390C900 400 900 410 900 420C900 430 900 440 900 450C900 460 900 470 900 480C900 490 900 500 900 510C900 520 900 530 900 540C900 550 900 560 900 570C900 580 900 590 900 595L900 600Z" fill="#001122" stroke-linecap="round" stroke-linejoin="miter"></path></svg>